<?xml version="1.0" encoding="UTF-8" standalone="no"?>
<!DOCTYPE svg PUBLIC "-//W3C//DTD SVG 1.1//EN"
 "http://www.w3.org/Graphics/SVG/1.1/DTD/svg11.dtd">
<!-- Generated by graphviz version 2.43.0 (0)
 -->
<!-- Title: QPSK_Transceiver Pages: 1 -->
<svg width="958pt" height="46pt"
 viewBox="0.00 0.00 958.00 46.00" xmlns="http://www.w3.org/2000/svg" xmlns:xlink="http://www.w3.org/1999/xlink">
<g id="graph0" class="graph" transform="scale(1 1) rotate(0) translate(4 42)">
<title>QPSK_Transceiver</title>
<polygon fill="white" stroke="transparent" points="-4,4 -4,-42 954,-42 954,4 -4,4"/>
<!-- src -->
<g id="node1" class="node">
<title>src</title>
<path fill="none" stroke="black" d="M54,-38C54,-38 12,-38 12,-38 6,-38 0,-32 0,-26 0,-26 0,-12 0,-12 0,-6 6,0 12,0 12,0 54,0 54,0 60,0 66,-6 66,-12 66,-12 66,-26 66,-26 66,-32 60,-38 54,-38"/>
<text text-anchor="middle" x="33" y="-22.8" font-family="Times,serif" font-size="14.00">Bit</text>
<text text-anchor="middle" x="33" y="-7.8" font-family="Times,serif" font-size="14.00">Source</text>
</g>
<!-- mod -->
<g id="node2" class="node">
<title>mod</title>
<path fill="none" stroke="black" d="M181,-38C181,-38 114,-38 114,-38 108,-38 102,-32 102,-26 102,-26 102,-12 102,-12 102,-6 108,0 114,0 114,0 181,0 181,0 187,0 193,-6 193,-12 193,-12 193,-26 193,-26 193,-32 187,-38 181,-38"/>
<text text-anchor="middle" x="147.5" y="-22.8" font-family="Times,serif" font-size="14.00">QPSK</text>
<text text-anchor="middle" x="147.5" y="-7.8" font-family="Times,serif" font-size="14.00">Modulator</text>
</g>
<!-- src&#45;&gt;mod -->
<g id="edge1" class="edge">
<title>src&#45;&gt;mod</title>
<path fill="none" stroke="black" d="M66.24,-19C74.17,-19 82.89,-19 91.57,-19"/>
<polygon fill="black" stroke="black" points="91.68,-22.5 101.68,-19 91.68,-15.5 91.68,-22.5"/>
</g>
<!-- up -->
<g id="node3" class="node">
<title>up</title>
<path fill="none" stroke="black" d="M312,-37C312,-37 241,-37 241,-37 235,-37 229,-31 229,-25 229,-25 229,-13 229,-13 229,-7 235,-1 241,-1 241,-1 312,-1 312,-1 318,-1 324,-7 324,-13 324,-13 324,-25 324,-25 324,-31 318,-37 312,-37"/>
<text text-anchor="middle" x="276.5" y="-15.3" font-family="Times,serif" font-size="14.00">Upsampler</text>
</g>
<!-- mod&#45;&gt;up -->
<g id="edge2" class="edge">
<title>mod&#45;&gt;up</title>
<path fill="none" stroke="black" d="M193.28,-19C201.5,-19 210.19,-19 218.71,-19"/>
<polygon fill="black" stroke="black" points="218.98,-22.5 228.98,-19 218.98,-15.5 218.98,-22.5"/>
</g>
<!-- tx_rrc -->
<g id="node4" class="node">
<title>tx_rrc</title>
<path fill="none" stroke="black" d="M404,-38C404,-38 372,-38 372,-38 366,-38 360,-32 360,-26 360,-26 360,-12 360,-12 360,-6 366,0 372,0 372,0 404,0 404,0 410,0 416,-6 416,-12 416,-12 416,-26 416,-26 416,-32 410,-38 404,-38"/>
<text text-anchor="middle" x="388" y="-22.8" font-family="Times,serif" font-size="14.00">RRC</text>
<text text-anchor="middle" x="388" y="-7.8" font-family="Times,serif" font-size="14.00">Filter</text>
</g>
<!-- up&#45;&gt;tx_rrc -->
<g id="edge3" class="edge">
<title>up&#45;&gt;tx_rrc</title>
<path fill="none" stroke="black" d="M324.26,-19C332.66,-19 341.33,-19 349.43,-19"/>
<polygon fill="black" stroke="black" points="349.7,-22.5 359.7,-19 349.7,-15.5 349.7,-22.5"/>
</g>
<!-- channel -->
<g id="node5" class="node">
<title>channel</title>
<path fill="none" stroke="black" d="M515,-38C515,-38 464,-38 464,-38 458,-38 452,-32 452,-26 452,-26 452,-12 452,-12 452,-6 458,0 464,0 464,0 515,0 515,0 521,0 527,-6 527,-12 527,-12 527,-26 527,-26 527,-32 521,-38 515,-38"/>
<text text-anchor="middle" x="489.5" y="-22.8" font-family="Times,serif" font-size="14.00">AWGN</text>
<text text-anchor="middle" x="489.5" y="-7.8" font-family="Times,serif" font-size="14.00">Channel</text>
</g>
<!-- tx_rrc&#45;&gt;channel -->
<g id="edge4" class="edge">
<title>tx_rrc&#45;&gt;channel</title>
<path fill="none" stroke="black" d="M416.19,-19C424.05,-19 432.86,-19 441.55,-19"/>
<polygon fill="black" stroke="black" points="441.64,-22.5 451.64,-19 441.64,-15.5 441.64,-22.5"/>
</g>
<!-- rx_rrc -->
<g id="node6" class="node">
<title>rx_rrc</title>
<path fill="none" stroke="black" d="M674,-38C674,-38 575,-38 575,-38 569,-38 563,-32 563,-26 563,-26 563,-12 563,-12 563,-6 569,0 575,0 575,0 674,0 674,0 680,0 686,-6 686,-12 686,-12 686,-26 686,-26 686,-32 680,-38 674,-38"/>
<text text-anchor="middle" x="624.5" y="-22.8" font-family="Times,serif" font-size="14.00">RRC</text>
<text text-anchor="middle" x="624.5" y="-7.8" font-family="Times,serif" font-size="14.00">Matched Filter</text>
</g>
<!-- channel&#45;&gt;rx_rrc -->
<g id="edge5" class="edge">
<title>channel&#45;&gt;rx_rrc</title>
<path fill="none" stroke="black" d="M527.19,-19C535.24,-19 544.02,-19 552.89,-19"/>
<polygon fill="black" stroke="black" points="552.92,-22.5 562.92,-19 552.92,-15.5 552.92,-22.5"/>
</g>
<!-- down -->
<g id="node7" class="node">
<title>down</title>
<path fill="none" stroke="black" d="M825,-37C825,-37 734,-37 734,-37 728,-37 722,-31 722,-25 722,-25 722,-13 722,-13 722,-7 728,-1 734,-1 734,-1 825,-1 825,-1 831,-1 837,-7 837,-13 837,-13 837,-25 837,-25 837,-31 831,-37 825,-37"/>
<text text-anchor="middle" x="779.5" y="-15.3" font-family="Times,serif" font-size="14.00">Downsampler</text>
</g>
<!-- rx_rrc&#45;&gt;down -->
<g id="edge6" class="edge">
<title>rx_rrc&#45;&gt;down</title>
<path fill="none" stroke="black" d="M686.41,-19C694.7,-19 703.25,-19 711.65,-19"/>
<polygon fill="black" stroke="black" points="711.78,-22.5 721.78,-19 711.78,-15.5 711.78,-22.5"/>
</g>
<!-- decision -->
<g id="node8" class="node">
<title>decision</title>
<path fill="none" stroke="black" d="M938,-38C938,-38 885,-38 885,-38 879,-38 873,-32 873,-26 873,-26 873,-12 873,-12 873,-6 879,0 885,0 885,0 938,0 938,0 944,0 950,-6 950,-12 950,-12 950,-26 950,-26 950,-32 944,-38 938,-38"/>
<text text-anchor="middle" x="911.5" y="-22.8" font-family="Times,serif" font-size="14.00">Symbol</text>
<text text-anchor="middle" x="911.5" y="-7.8" font-family="Times,serif" font-size="14.00">Decision</text>
</g>
<!-- down&#45;&gt;decision -->
<g id="edge7" class="edge">
<title>down&#45;&gt;decision</title>
<path fill="none" stroke="black" d="M837.14,-19C845.61,-19 854.27,-19 862.53,-19"/>
<polygon fill="black" stroke="black" points="862.75,-22.5 872.75,-19 862.75,-15.5 862.75,-22.5"/>
</g>
</g>
</svg>
