<?xml version="1.0" encoding="UTF-8" standalone="no"?>
<!DOCTYPE svg PUBLIC "-//W3C//DTD SVG 1.1//EN"
 "http://www.w3.org/Graphics/SVG/1.1/DTD/svg11.dtd">
<!-- Generated by graphviz version 2.43.0 (0)
 -->
<!-- Title: QPSK_Transceiver Pages: 1 -->
<svg width="715pt" height="46pt"
 viewBox="0.00 0.00 715.00 46.00" xmlns="http://www.w3.org/2000/svg" xmlns:xlink="http://www.w3.org/1999/xlink">
<g id="graph0" class="graph" transform="scale(1 1) rotate(0) translate(4 42)">
<title>QPSK_Transceiver</title>
<polygon fill="white" stroke="transparent" points="-4,4 -4,-42 711,-42 711,4 -4,4"/>
<!-- src -->
<g id="node1" class="node">
<title>src</title>
<path fill="none" stroke="black" d="M54,-38C54,-38 12,-38 12,-38 6,-38 0,-32 0,-26 0,-26 0,-12 0,-12 0,-6 6,0 12,0 12,0 54,0 54,0 60,0 66,-6 66,-12 66,-12 66,-26 66,-26 66,-32 60,-38 54,-38"/>
<text text-anchor="middle" x="33" y="-22.8" font-family="Times,serif" font-size="14.00">Bit</text>
<text text-anchor="middle" x="33" y="-7.8" font-family="Times,serif" font-size="14.00">Source</text>
</g>
<!-- mod -->
<g id="node2" class="node">
<title>mod</title>
<path fill="none" stroke="black" d="M181,-38C181,-38 114,-38 114,-38 108,-38 102,-32 102,-26 102,-26 102,-12 102,-12 102,-6 108,0 114,0 114,0 181,0 181,0 187,0 193,-6 193,-12 193,-12 193,-26 193,-26 193,-32 187,-38 181,-38"/>
<text text-anchor="middle" x="147.5" y="-22.8" font-family="Times,serif" font-size="14.00">QPSK</text>
<text text-anchor="middle" x="147.5" y="-7.8" font-family="Times,serif" font-size="14.00">Modulator</text>
</g>
<!-- src&#45;&gt;mod -->
<g id="edge1" class="edge">
<title>src&#45;&gt;mod</title>
<path fill="none" stroke="black" d="M66.24,-19C74.17,-19 82.89,-19 91.57,-19"/>
<polygon fill="black" stroke="black" points="91.68,-22.5 101.68,-19 91.68,-15.5 91.68,-22.5"/>
</g>
<!-- tx_rrc -->
<g id="node3" class="node">
<title>tx_rrc</title>
<path fill="none" stroke="black" d="M312,-38C312,-38 241,-38 241,-38 235,-38 229,-32 229,-26 229,-26 229,-12 229,-12 229,-6 235,0 241,0 241,0 312,0 312,0 318,0 324,-6 324,-12 324,-12 324,-26 324,-26 324,-32 318,-38 312,-38"/>
<text text-anchor="middle" x="276.5" y="-22.8" font-family="Times,serif" font-size="14.00">RRC</text>
<text text-anchor="middle" x="276.5" y="-7.8" font-family="Times,serif" font-size="14.00">Upsampler</text>
</g>
<!-- mod&#45;&gt;tx_rrc -->
<g id="edge2" class="edge">
<title>mod&#45;&gt;tx_rrc</title>
<path fill="none" stroke="black" d="M193.28,-19C201.5,-19 210.19,-19 218.71,-19"/>
<polygon fill="black" stroke="black" points="218.98,-22.5 228.98,-19 218.98,-15.5 218.98,-22.5"/>
</g>
<!-- channel -->
<g id="node4" class="node">
<title>channel</title>
<path fill="none" stroke="black" d="M423,-38C423,-38 372,-38 372,-38 366,-38 360,-32 360,-26 360,-26 360,-12 360,-12 360,-6 366,0 372,0 372,0 423,0 423,0 429,0 435,-6 435,-12 435,-12 435,-26 435,-26 435,-32 429,-38 423,-38"/>
<text text-anchor="middle" x="397.5" y="-22.8" font-family="Times,serif" font-size="14.00">AWGN</text>
<text text-anchor="middle" x="397.5" y="-7.8" font-family="Times,serif" font-size="14.00">Channel</text>
</g>
<!-- tx_rrc&#45;&gt;channel -->
<g id="edge3" class="edge">
<title>tx_rrc&#45;&gt;channel</title>
<path fill="none" stroke="black" d="M324.19,-19C332.62,-19 341.4,-19 349.83,-19"/>
<polygon fill="black" stroke="black" points="349.87,-22.5 359.87,-19 349.87,-15.5 349.87,-22.5"/>
</g>
<!-- rx_rrc -->
<g id="node5" class="node">
<title>rx_rrc</title>
<path fill="none" stroke="black" d="M582,-38C582,-38 483,-38 483,-38 477,-38 471,-32 471,-26 471,-26 471,-12 471,-12 471,-6 477,0 483,0 483,0 582,0 582,0 588,0 594,-6 594,-12 594,-12 594,-26 594,-26 594,-32 588,-38 582,-38"/>
<text text-anchor="middle" x="532.5" y="-22.8" font-family="Times,serif" font-size="14.00">RRC</text>
<text text-anchor="middle" x="532.5" y="-7.8" font-family="Times,serif" font-size="14.00">Matched Filter</text>
</g>
<!-- channel&#45;&gt;rx_rrc -->
<g id="edge4" class="edge">
<title>channel&#45;&gt;rx_rrc</title>
<path fill="none" stroke="black" d="M435.19,-19C443.24,-19 452.02,-19 460.89,-19"/>
<polygon fill="black" stroke="black" points="460.92,-22.5 470.92,-19 460.92,-15.5 460.92,-22.5"/>
</g>
<!-- decision -->
<g id="node6" class="node">
<title>decision</title>
<path fill="none" stroke="black" d="M695,-38C695,-38 642,-38 642,-38 636,-38 630,-32 630,-26 630,-26 630,-12 630,-12 630,-6 636,0 642,0 642,0 695,0 695,0 701,0 707,-6 707,-12 707,-12 707,-26 707,-26 707,-32 701,-38 695,-38"/>
<text text-anchor="middle" x="668.5" y="-22.8" font-family="Times,serif" font-size="14.00">Symbol</text>
<text text-anchor="middle" x="668.5" y="-7.8" font-family="Times,serif" font-size="14.00">Decision</text>
</g>
<!-- rx_rrc&#45;&gt;decision -->
<g id="edge5" class="edge">
<title>rx_rrc&#45;&gt;decision</title>
<path fill="none" stroke="black" d="M594.23,-19C602.8,-19 611.5,-19 619.78,-19"/>
<polygon fill="black" stroke="black" points="620,-22.5 630,-19 620,-15.5 620,-22.5"/>
</g>
</g>
</svg>
